<?xml version='1.0' encoding='UTF-8'?>
<svg viewBox="-2 -2 32 32" xmlns="http://www.w3.org/2000/svg" xmlns:xlink="http://www.w3.org/1999/xlink">
  <g id="Layer_1" transform="translate(-2, -2.00000023841858)" style="enable-background:new 0 0 32 32">
    <g id="Calendar">
      <path d="M29, 4L26, 4L26, 7C26, 7.5 25.5, 8 25, 8L21, 8C20.5, 8 20, 7.5 20, 7L20, 4L12, 4L12, 7C12, 7.5 11.5, 8 11, 8L7, 8C6.5, 8 6, 7.5 6, 7L6, 4L3, 4C2.4, 4 2, 4.4 2, 5L2, 10L30, 10L30, 5C30, 4.4 29.6, 4 29, 4z" fill="#D11C1C" class="Red" />
    </g>
  </g>
  <g id="Layer_1" transform="translate(-2, -2)" style="enable-background:new 0 0 32 32">
    <g id="Calendar">
      <g class="st1">
        <rect x="8" y="14" width="4" height="4" fill="#727272" opacity="0.5" class="Black" />
      </g>
    </g>
  </g>
  <g id="Layer_1" transform="translate(-2, -2)" style="enable-background:new 0 0 32 32">
    <g id="Calendar">
      <g class="st1">
        <rect x="14" y="20" width="4" height="4" fill="#727272" opacity="0.5" class="Black" />
      </g>
    </g>
  </g>
  <g id="Layer_1" transform="translate(-2, -2)" style="enable-background:new 0 0 32 32">
    <g id="Calendar">
      <g class="st1">
        <rect x="8" y="20" width="4" height="4" fill="#727272" opacity="0.5" class="Black" />
      </g>
    </g>
  </g>
  <g id="Layer_1" transform="translate(-2, -2)" style="enable-background:new 0 0 32 32">
    <g id="Calendar">
      <g class="st1">
        <rect x="20" y="14" width="4" height="4" fill="#727272" opacity="0.5" class="Black" />
      </g>
    </g>
  </g>
  <g id="Layer_1" transform="translate(-2, -2)" style="enable-background:new 0 0 32 32">
    <g id="Calendar">
      <g class="st1">
        <rect x="14" y="14" width="4" height="4" fill="#727272" opacity="0.5" class="Black" />
      </g>
    </g>
  </g>
  <g id="Layer_1" transform="translate(-2, -2)" style="enable-background:new 0 0 32 32">
    <g id="Calendar">
      <g class="st1">
        <rect x="20" y="20" width="4" height="4" fill="#727272" opacity="0.5" class="Black" />
      </g>
    </g>
  </g>
  <g id="Layer_1" transform="translate(-2, -2.00000095367432)" style="enable-background:new 0 0 32 32">
    <g id="Calendar">
      <path d="M28, 10L28, 28L4, 28L4, 10L2, 10L2, 29C2, 29.6 2.4, 30 3, 30L29, 30C29.6, 30 30, 29.6 30, 29L30, 10L28, 10z" fill="#727272" class="Black" />
    </g>
  </g>
  <g id="Layer_1" transform="translate(-2, -2)" style="enable-background:new 0 0 32 32">
    <g id="Calendar">
      <rect x="22" y="2" width="2" height="4" fill="#727272" class="Black" />
    </g>
  </g>
  <g id="Layer_1" transform="translate(-2, -2)" style="enable-background:new 0 0 32 32">
    <g id="Calendar">
      <rect x="8" y="2" width="2" height="4" fill="#727272" class="Black" />
    </g>
  </g>
  <g id="Layer_1" transform="translate(14, 14)" style="enable-background:new 0 0 16 16">
    <g>
      <path d="M8, 14C4.7, 14 2, 13.1 2, 12L2, 14C2, 15.1 4.7, 16 8, 16C11.3, 16 14, 15.1 14, 14L14, 12C14, 13.1 11.3, 14 8, 14z" fill="#FFB115" class="Yellow" />
    </g>
  </g>
  <g id="Layer_1" transform="translate(14, 14)" style="enable-background:new 0 0 16 16">
    <g>
      <path d="M8, 10C4.7, 10 2, 9.1 2, 8L2, 10C2, 11.1 4.7, 12 8, 12C11.3, 12 14, 11.1 14, 10L14, 8C14, 9.1 11.3, 10 8, 10z" fill="#FFB115" class="Yellow" />
    </g>
  </g>
  <g id="Layer_1" transform="translate(14, 14)" style="enable-background:new 0 0 16 16">
    <g>
      <path d="M8, 0C4.7, 0 2, 0.9 2, 2L2, 6C2, 7.1 4.7, 8 8, 8C11.3, 8 14, 7.1 14, 6L14, 2C14, 0.9 11.3, 0 8, 0z" fill="#FFB115" class="Yellow" />
    </g>
  </g>
  <g id="Layer_1" transform="translate(14, 14)" style="enable-background:new 0 0 16 16">
    <g>
      <path d="M8, 12C4.7, 12 2, 11.1 2, 10L2, 12C2, 13.1 4.7, 14 8, 14C11.3, 14 14, 13.1 14, 12L14, 10C14, 11.1 11.3, 12 8, 12z" fill="#FFFFFF" class="White" />
    </g>
  </g>
  <g id="Layer_1" transform="translate(14, 14)" style="enable-background:new 0 0 16 16">
    <g>
      <path d="M8, 8C4.7, 8 2, 7.1 2, 6L2, 8C2, 9.1 4.7, 10 8, 10C11.3, 10 14, 9.1 14, 8L14, 6C14, 7.1 11.3, 8 8, 8z" fill="#FFFFFF" class="White" />
    </g>
  </g>
</svg>