<?xml version='1.0' encoding='UTF-8'?>
<svg viewBox="-6 -4 32 32" xmlns="http://www.w3.org/2000/svg" xmlns:xlink="http://www.w3.org/1999/xlink">
  <g id="Layer_1" transform="translate(-6, -4)" style="enable-background:new 0 0 32 32">
    <g id="New">
      <g>
        <path d="M19, 4L7, 4C6.4, 4 6, 4.4 6, 5L6, 27C6, 27.6 6.4, 28 7, 28L25, 28C25.6, 28 26, 27.6 26, 27L26, 11L19, 4zM24, 26L8, 26L8, 6L18, 6L18, 11C18, 11.6 18.4, 12 19, 12L24, 12L24, 26z" fill="#727272" class="Black" />
      </g>
    </g>
  </g>
  <g id="Layer_1" transform="translate(-6, -4)" style="enable-background:new 0 0 32 32">
    <g id="New">
      <g>
        <path d="M19, 4L7, 4C6.4, 4 6, 4.4 6, 5L6, 27C6, 27.6 6.4, 28 7, 28L25, 28C25.6, 28 26, 27.6 26, 27L26, 11L19, 4zM24, 26L8, 26L8, 6L18, 6L18, 11C18, 11.6 18.4, 12 19, 12L24, 12L24, 26z" fill="#727272" class="Black" />
      </g>
    </g>
  </g>
  <g id="Layer_1" transform="translate(10, 12)" style="enable-background:new 0 0 16 16">
    <g id="Print">
      <path d="M15, 4L14, 4L14, 8L2, 8L2, 4L1, 4C0.5, 4 0, 4.4 0, 5L0, 13C0, 13.6 0.5, 14 1, 14L4, 14L4, 15C4, 15.6 4.5, 16 5, 16L11, 16C11.5, 16 12, 15.6 12, 15L12, 14L15, 14C15.5, 14 16, 13.6 16, 13L16, 5C16, 4.4 15.5, 4 15, 4z" fill="#D11C1C" class="Red" />
    </g>
  </g>
  <g id="Layer_1" transform="translate(10, 12)" style="enable-background:new 0 0 16 16">
    <g id="Print">
      <path d="M12, 6L12, 1C12, 0.5 11.5, 0 11, 0L5, 0C4.5, 0 4, 0.5 4, 1L4, 6L12, 6z" fill="#D11C1C" class="Red" />
    </g>
  </g>
  <g id="Layer_1" transform="translate(10, 12)" style="enable-background:new 0 0 16 16">
    <g id="Print">
      <path d="M10, 10L10, 14L6, 14L6, 10L10, 10z" fill="#FFFFFF" class="White" />
    </g>
  </g>
  <g id="Layer_1" transform="translate(10, 12)" style="enable-background:new 0 0 16 16">
    <g id="Print">
      <polygon points="12,4 12,6 10,6 10,2 6,2 6,6 4,6 4,4 2,4 2,8 4,8 14,8 14,6 14,4  " fill="#FFFFFF" class="White" />
    </g>
  </g>
</svg>