<?xml version='1.0' encoding='UTF-8'?>
<svg viewBox="-6 -4 32 32" xmlns="http://www.w3.org/2000/svg" xmlns:xlink="http://www.w3.org/1999/xlink">
  <g id="Layer_1" transform="translate(-6, -4)" style="enable-background:new 0 0 32 32">
    <g id="New">
      <g>
        <path d="M19, 4L7, 4C6.4, 4 6, 4.4 6, 5L6, 27C6, 27.6 6.4, 28 7, 28L25, 28C25.6, 28 26, 27.6 26, 27L26, 11L19, 4zM24, 26L8, 26L8, 6L18, 6L18, 11C18, 11.6 18.4, 12 19, 12L24, 12L24, 26z" fill="#727272" class="Black" />
      </g>
    </g>
  </g>
  <g id="Layer_1" transform="translate(-6, -4)" style="enable-background:new 0 0 32 32">
    <g id="New">
      <g>
        <path d="M19, 4L7, 4C6.4, 4 6, 4.4 6, 5L6, 27C6, 27.6 6.4, 28 7, 28L25, 28C25.6, 28 26, 27.6 26, 27L26, 11L19, 4zM24, 26L8, 26L8, 6L18, 6L18, 11C18, 11.6 18.4, 12 19, 12L24, 12L24, 26z" fill="#727272" class="Black" />
      </g>
    </g>
  </g>
  <g id="Layer_1" transform="translate(9.99999961853027, 12)" style="enable-background:new 0 0 16 16">
    <g id="Find_1_">
      <path d="M16, 12.5L14.4, 1.8C14.2, 0.8 13.3, 0 12.2, 0C11, 0 10, 1 10, 2.2L10, 4L6, 4L6, 2.2C6, 1 5, 0 3.8, 0C2.7, 0 1.8, 0.8 1.6, 1.8L0, 12.5C-0.3, 14.3 1.1, 16 3, 16C4.7, 16 6, 14.7 6, 13L6, 10L10, 10L10, 13C10, 14.6 11.3, 16 13, 16C14.9, 16 16.3, 14.3 16, 12.5z" fill="#D11C1C" class="Red" />
    </g>
  </g>
  <g id="Layer_1" transform="translate(10, 12)" style="enable-background:new 0 0 16 16">
    <g id="Find_1_">
      <circle cx="13" cy="13" r="1" fill="#FFFFFF" class="White" />
    </g>
  </g>
  <g id="Layer_1" transform="translate(10, 12)" style="enable-background:new 0 0 16 16">
    <g id="Find_1_">
      <circle cx="3" cy="13" r="1" fill="#FFFFFF" class="White" />
    </g>
  </g>
</svg>