<svg id="ba17ba26-6884-4790-8ce4-84c2f6ea868f" data-name="Letra K" xmlns="http://www.w3.org/2000/svg" viewBox="0 0 77.6 121.32"><defs><style>.f845e520-60df-4d5b-825e-a917db4cac61{fill:#fff;stroke:#000;stroke-miterlimit:10;}</style></defs><path class="f845e520-60df-4d5b-825e-a917db4cac61" d="M338.91,428.88a2.07,2.07,0,0,0,0,2.55l1.65,2,5,6.05a5,5,0,0,1,1.16,3.22v8a8.42,8.42,0,0,1-8.41,8.41h-5.14a8.42,8.42,0,0,1-8.41-8.41V370.8a5,5,0,0,1,3.12-4.66,65,65,0,0,1,17.48-4.37,1.25,1.25,0,0,1,1.37,1.24v55a1.48,1.48,0,0,1-.32.93l-5.85,7.69Z" transform="translate(-324.31 -361.26)"/><path class="f845e520-60df-4d5b-825e-a917db4cac61" d="M400.66,471.76a65.4,65.4,0,0,1-11.51,9.86,2.76,2.76,0,0,1-3.68-.55h0a2.19,2.19,0,0,0-.25-.37l-2.58-3.13-.24-.29-15-18.18-10.63-12.87-10-12.09-1-1.26a4.84,4.84,0,0,1-.12-6l1.16-1.52,8.94-11.73,6.71-8.82a2.74,2.74,0,0,1,2.18-1.08h22.9a.81.81,0,0,1,.64,1.3l-17.65,23.17a2.75,2.75,0,0,0,.06,3.41l22.72,27.5,3.12,3.78,0,.05,3.89,4.71a1.85,1.85,0,0,0,.28.28h0l.16.19A2.75,2.75,0,0,1,400.66,471.76Z" transform="translate(-324.31 -361.26)"/></svg>