<svg xmlns="http://www.w3.org/2000/svg" viewBox="0 0 131.41 131.41"><defs><style>.cls-1{fill:#fff;}.cls-2{fill:#bf0811;}</style></defs><title>K-icon</title><g id="Layer_2" data-name="Layer 2"><g id="Layer_1-2" data-name="Layer 1"><path class="cls-1" d="M38,8V95.6a2.1,2.1,0,0,0,2.11,2.11H57.88A2.11,2.11,0,0,0,60,95.6V79.49L53.83,72l-1.65-2a2.07,2.07,0,0,1,0-2.55l1.69-2.21L60,57.18V1.43A1.28,1.28,0,0,1,61.11.16,65,65,0,0,0,36.34,6.92,1.21,1.21,0,0,1,38,8Z"/><path class="cls-1" d="M113.54,106.25l-7.05-8.54L82.39,68.53l19-24.9a.81.81,0,0,0-.64-1.3H76.46l-7.53,9.9L60,64l-2.48,3.25a2.09,2.09,0,0,0,.05,2.6L60,72.75,70,84.84,80.6,97.71l17.84,21.6a2.5,2.5,0,0,1-.55,3.68,65.87,65.87,0,0,0,19.5-16.72A2.5,2.5,0,0,1,113.54,106.25Z"/><path class="cls-2" d="M97.75,123.08l.14-.09-.87.49Z"/><path class="cls-2" d="M96.53,123.75l.49-.27-1.41.74Z"/><path class="cls-2" d="M17.39,21.17l-.32.36c.29-.32.58-.64.88-1C17.76,20.78,17.57,21,17.39,21.17Z"/><path class="cls-2" d="M38.85,125.69l.59.26-.77-.35A1.51,1.51,0,0,0,38.85,125.69Z"/><path class="cls-2" d="M131.39,64.17c0-.27,0-.53,0-.79s0-.71,0-1.06,0-.89-.08-1.34-.05-.64-.08-1,0-.45-.06-.68-.07-.72-.11-1.08-.08-.69-.13-1c-.06-.51-.13-1-.21-1.52s-.17-1.09-.27-1.63c-.06-.36-.13-.73-.2-1.09s-.1-.53-.16-.79q-.6-2.91-1.47-5.71c-.11-.39-.24-.78-.37-1.16s-.19-.61-.3-.91-.3-.87-.46-1.3c-.09-.26-.19-.52-.29-.78-.16-.42-.33-.84-.5-1.26s-.34-.83-.52-1.25-.35-.82-.54-1.23c-.56-1.23-1.15-2.44-1.79-3.64-.2-.39-.41-.77-.63-1.16s-.43-.78-.66-1.16-.45-.77-.69-1.15c-.93-1.52-1.92-3-3-4.45q-.37-.53-.78-1.05l-.65-.84c-.28-.36-.56-.71-.85-1.06l-.15-.18c-.46-.56-.93-1.11-1.42-1.65-.13-.16-.27-.31-.41-.47-.42-.47-.85-.94-1.3-1.4l-.08-.08c-.19-.21-.38-.41-.58-.6q-.54-.57-1.11-1.11c-.23-.23-.47-.46-.71-.67-.43-.42-.87-.82-1.31-1.21L108.7,16c-.4-.35-.8-.69-1.21-1q-1.12-.94-2.31-1.83l-1.13-.83c-.32-.23-.64-.46-1-.68s-.71-.49-1.07-.73-.72-.48-1.09-.71-1-.6-1.43-.88c-.23-.15-.47-.29-.71-.43-.47-.27-.94-.54-1.42-.8s-1.16-.63-1.75-.93-1.41-.71-2.14-1.05c-.51-.23-1-.47-1.54-.69s-1.24-.53-1.87-.78S88.89,4.2,88.29,4c-.22-.09-.44-.17-.67-.24-.46-.17-.92-.32-1.38-.47-.65-.22-1.3-.42-1.95-.61s-1.26-.36-1.9-.53l-.27-.07-1.81-.44c-.56-.13-1.13-.25-1.69-.36l-1.16-.22-.27,0q-.7-.13-1.41-.24C74.67.6,73.55.45,72.42.34l-1-.09c-.4,0-.81-.07-1.22-.09s-1-.07-1.5-.09L67.54,0c-.61,0-1.22,0-1.84,0s-1.42,0-2.12,0-1.13,0-1.69.08a5.68,5.68,0,0,0-.59,0h-.19A1.28,1.28,0,0,0,60,1.43V57.18l-6.17,8.1-1.69,2.21a2.07,2.07,0,0,0,0,2.55l1.65,2L60,79.49V95.6a2.11,2.11,0,0,1-2.11,2.11H40.14A2.1,2.1,0,0,1,38,95.6V8a1.21,1.21,0,0,0-1.69-1.11l-.06,0-.86.44-1,.55c-.47.25-.94.51-1.4.78-.66.38-1.31.77-2,1.18a3,3,0,0,0-.33.21c-.58.36-1.16.74-1.73,1.12l-.57.4c-.53.36-1.06.73-1.58,1.12l-.17.12c-.51.38-1,.76-1.51,1.16-.23.18-.46.36-.68.55-.51.4-1,.81-1.5,1.24L22.7,16c-.57.5-1.14,1-1.7,1.52s-1.18,1.12-1.76,1.7c-.28.28-.55.55-.82.84s-.32.32-.47.49-.59.63-.88,1q-.66.72-1.29,1.47t-1.23,1.47c-.27.33-.53.67-.8,1-.52.67-1,1.36-1.53,2.06q-1.16,1.61-2.22,3.3-.55.89-1.08,1.8c-.41.69-.8,1.39-1.18,2.1-.19.35-.37.7-.55,1s-.48,1-.71,1.43-.45,1-.67,1.44-.37.83-.55,1.25-.27.64-.4,1c-.2.49-.39,1-.58,1.46a64.56,64.56,0,0,0-2.72,9.1c-.08.34-.15.69-.22,1-.11.53-.22,1.07-.31,1.61S.84,55.15.76,55.7s-.15,1-.21,1.52c-.05.35-.09.69-.13,1S.34,59,.31,59.34s0,.45-.06.68-.06.64-.08,1-.06.89-.08,1.34,0,.71,0,1.06,0,.52,0,.79c0,.51,0,1,0,1.54v0c0,.72,0,1.44,0,2.15,0,.55,0,1.1.08,1.65,0,.28,0,.55.05.83s0,.76.09,1.13,0,.62.08.93c0,.55.12,1.1.19,1.65s.12.92.19,1.38c0,.13,0,.25.06.37q.1.72.24,1.44a.5.5,0,0,0,0,.12q.13.8.3,1.56c.21,1.09.46,2.18.75,3.25.07.3.15.59.24.89s.16.63.26.94.24.82.37,1.22.31,1,.47,1.49l.1.28c.31.9.63,1.78,1,2.66q.18.49.39,1c.14.35.28.7.44,1s.3.69.46,1c.43,1,.89,1.93,1.38,2.87.18.36.36.71.55,1s.38.7.57,1c.06.11.12.22.19.33.29.52.59,1,.9,1.54.47.78.95,1.55,1.45,2.3.25.39.51.77.77,1.14l.21.3c.32.46.64.91,1,1.36.11.16.23.32.35.47.35.47.71.94,1.08,1.4.92,1.16,1.88,2.3,2.89,3.39.42.47.84.92,1.29,1.37,0,.07.12.13.18.2l.22.22c.38.39.76.77,1.15,1.14s1.07,1,1.61,1.52,1.08,1,1.64,1.43,1.26,1.06,1.92,1.57l.76.58c.32.26.64.5,1,.73l.78.56c.43.32.87.63,1.32.92q2,1.33,4,2.52c.42.24.84.48,1.27.71,1.23.67,2.48,1.31,3.76,1.9l.64.29.77.35.64.27,1.25.52q.63.26,1.26.48l1,.38.4.14,1.13.38q.51.18,1,.33c.29.1.59.19.89.27.67.2,1.34.38,2,.56.83.22,1.67.42,2.51.6l.92.2c.52.11,1,.21,1.57.3s1.08.19,1.63.27q2.13.33,4.29.51c.38,0,.77.07,1.16.09l1.17.07,1.15.05.79,0c.48,0,1,0,1.44,0s1.25,0,1.87,0l1.09,0,.66,0q.44,0,.87-.06c.48,0,1-.06,1.43-.11l.46,0c.43,0,.85-.08,1.28-.14.79-.08,1.57-.19,2.34-.31.55-.08,1.09-.17,1.63-.27s1.07-.2,1.6-.31l1.14-.24c.49-.11,1-.22,1.47-.35,1.25-.3,2.48-.64,3.7-1l1.18-.38c.2-.06.4-.12.61-.2l1.26-.45q.75-.27,1.5-.57c.75-.3,1.49-.6,2.22-.92s1.45-.66,2.17-1l1.43-.71,1.41-.74.87-.49a2.5,2.5,0,0,0,.55-3.68L80.6,97.71,70,84.84,60,72.75l-2.43-2.94a2.09,2.09,0,0,1-.05-2.6L60,64l8.94-11.73,7.53-9.9h24.26a.81.81,0,0,1,.64,1.3l-19,24.9,24.1,29.18,7.05,8.54a2.5,2.5,0,0,0,3.85,0l0-.06.92-1.2.9-1.23q1.71-2.4,3.2-5c.2-.33.39-.67.58-1l.06-.1c.19-.35.39-.7.57-1s.37-.69.55-1q1.16-2.23,2.13-4.58c.17-.41.34-.82.5-1.24.37-.91.71-1.84,1-2.78q.19-.56.36-1.11c.12-.34.23-.69.33-1s.15-.49.22-.73.2-.7.29-1.06.17-.59.24-.89c.3-1.14.56-2.28.8-3.44.08-.44.17-.88.24-1.33a.41.41,0,0,0,0-.16q.13-.72.24-1.44c0-.12,0-.24.06-.37.07-.46.13-.92.19-1.38s.14-1.1.19-1.65c0-.31.06-.62.08-.93s.07-.75.09-1.13.06-.74.07-1.11c0-.1,0-.21,0-.32,0-.47,0-.94,0-1.41s0-1.2,0-1.81S131.4,64.68,131.39,64.17Z"/></g></g></svg>