<?xml version='1.0' encoding='UTF-8'?>
<svg viewBox="-4 -2 32 32" xmlns="http://www.w3.org/2000/svg" xmlns:xlink="http://www.w3.org/1999/xlink">
  <g transform="translate(-4.57763672301326E-07, 0)">
    <g transform="translate(0.00049954223632831, 0)">
      <g transform="matrix(0.875000715255737, 0, 0, 0.875000715255737, 0, 0)">
        <g transform="translate(-0.00180043869018576, 0)">
          <g transform="matrix(1.14285719394684, 0, 0, 1.14285719394684, 0, 0)">
            <g transform="translate(-4.57763672301326E-07, 0)">
              <g id="Layer_1" transform="translate(-4.00000045776367, -2)" style="enable-background:new 0 0 32 32">
                <g id="User">
                  <path d="M10, 9.9C9.9, 10.4 10.2, 10.8 10.4, 11.3C10.6, 11.8 10.3, 13 11.3, 12.9C11.3, 12.9 11.3, 13 11.3, 13.1C11.9, 15.4 13.3, 18 16, 18C18.7, 18 20.2, 15.4 20.7, 13.1C20.7, 13.1 20.7, 13 20.7, 13C21.7, 13.1 21.3, 11.9 21.6, 11.4C21.8, 10.9 22, 10.5 21.9, 10C21.8, 9.6 21.5, 9.6 21.4, 9.7C23.2, 4.8 20.3, 5 20.3, 5C20.3, 5 20, 2 14.8, 2C10, 2 9.4, 6 10.5, 9.6C10.4, 9.6 10.1, 9.7 10, 9.9z" fill="#727272" class="Black" />
                </g>
              </g>
            </g>
          </g>
        </g>
      </g>
    </g>
  </g>
  <g transform="translate(0, -1.9073486328125E-06)">
    <g transform="translate(0.0005, -1.9073486328125E-06)">
      <g transform="matrix(0.875000715255737, 0, 0, 0.875000715255737, 0, 0)">
        <g transform="translate(-0.0018, -6.86645506675632E-07)">
          <g transform="matrix(1.14285719394684, 0, 0, 1.14285719394684, 0, 0)">
            <g transform="translate(0, -1.9073486328125E-06)">
              <g id="Layer_1" transform="translate(-4, -2.00000190734863)" style="enable-background:new 0 0 32 32">
                <g id="User">
                  <path d="M20, 18C19.2, 19.5 17.9, 22 16, 22C14.1, 22 12.8, 19.5 12, 18C9.7, 21.5 4, 19 4, 26.5L4, 30L28, 30L28, 26.5C28, 19.1 22.3, 21.4 20, 18z" fill="#727272" class="Black" />
                </g>
              </g>
            </g>
          </g>
        </g>
      </g>
    </g>
  </g>
  <g id="Layer_1" transform="translate(12, 14)" style="enable-background:new 0 0 16 16">
    <g id="Calendar_1_">
      <path d="M16, 4L16, 1C16, 0.4 15.5, 0 15, 0L3, 0C2.5, 0 2, 0.4 2, 1L2, 4L16, 4z" fill="#D11C1C" class="Red" />
    </g>
  </g>
  <g id="Layer_1" transform="translate(12, 14)" style="enable-background:new 0 0 16 16">
    <g id="Calendar_1_">
      <path d="M16, 4L16, 15C16, 15.6 15.5, 16 15, 16L3, 16C2.5, 16 2, 15.6 2, 15L2, 4L16, 4z" fill="#727272" class="Black" />
    </g>
  </g>
  <g id="Layer_1" transform="translate(12, 14)" style="enable-background:new 0 0 16 16">
    <g id="Calendar_1_">
      <path d="M14, 14L4, 14L4, 4L14, 4L14, 14z" fill="#FFFFFF" class="White" />
    </g>
  </g>
  <g id="Layer_1" transform="translate(12, 14)" style="enable-background:new 0 0 16 16">
    <g id="Calendar_1_">
      <g class="st1">
        <rect x="6" y="10" width="2" height="2" fill="#727272" opacity="0.5" class="Black" />
      </g>
    </g>
  </g>
  <g id="Layer_1" transform="translate(12, 14)" style="enable-background:new 0 0 16 16">
    <g id="Calendar_1_">
      <g class="st1">
        <rect x="10" y="10" width="2" height="2" fill="#727272" opacity="0.5" class="Black" />
      </g>
    </g>
  </g>
  <g id="Layer_1" transform="translate(12, 14)" style="enable-background:new 0 0 16 16">
    <g id="Calendar_1_">
      <g class="st1">
        <rect x="6" y="6" width="2" height="2" fill="#727272" opacity="0.5" class="Black" />
      </g>
    </g>
  </g>
  <g id="Layer_1" transform="translate(12, 14)" style="enable-background:new 0 0 16 16">
    <g id="Calendar_1_">
      <g class="st1">
        <rect x="10" y="6" width="2" height="2" fill="#727272" opacity="0.5" class="Black" />
      </g>
    </g>
  </g>
</svg>