<?xml version='1.0' encoding='UTF-8'?>
<svg viewBox="-2 -2 32 32" xmlns="http://www.w3.org/2000/svg" xmlns:xlink="http://www.w3.org/1999/xlink">
  <g id="Layer_1" transform="translate(-2, -2)" style="enable-background:new 0 0 32 32">
    <g id="CurrencyExchange">
      <path d="M11, 2C6, 2 2, 6 2, 11C2, 16 6, 20 11, 20C16, 20 20, 16 20, 11C20, 6 16, 2 11, 2zM15, 8.5C14.3, 8.1 13.5, 7.9 12.7, 7.9C11.7, 7.9 11, 8.2 10.4, 8.8C10, 9.1 9.7, 9.5 9.6, 10L13, 10L13, 12L9.6, 12C9.7, 12.5 10, 12.9 10.3, 13.3C10.9, 13.9 11.6, 14.1 12.6, 14.1C13.5, 14.1 14.3, 13.9 15.1, 13.5L15.1, 15.5C14.4, 15.8 13.4, 16 12.2, 16C10.6, 16 9.4, 15.6 8.5, 14.7C7.6, 14 7.2, 13.1 7.1, 12L6, 12L6, 10L7.1, 10C7.3, 9 7.8, 8.1 8.5, 7.4C9.5, 6.4 10.8, 6 12.4, 6C13.4, 6 14.2, 6.1 14.9, 6.4L14.9, 8.5z" fill="#FFB115" class="Yellow" />
    </g>
  </g>
  <g id="Layer_1" transform="translate(-2.00000095367432, -2.00000095367432)" style="enable-background:new 0 0 32 32">
    <g id="CurrencyExchange">
      <path d="M21, 12C16, 12 12, 16 12, 21C12, 26 16, 30 21, 30C26, 30 30, 26 30, 21C30, 16 26, 12 21, 12zM24.3, 24.5C24.1, 24.9 23.8, 25.2 23.5, 25.4C23.1, 25.6 22.7, 25.8 22.3, 25.9C22.2, 25.9 22.1, 25.9 22, 25.9L22, 27L20, 27L20, 26C19.8, 26 19.5, 25.9 19.3, 25.9C18.8, 25.8 18.4, 25.7 18, 25.5L18, 23.3C18.4, 23.6 18.9, 23.9 19.3, 24C19.8, 24.2 20.2, 24.2 20.7, 24.2C21, 24.2 21.2, 24.2 21.4, 24.1C21.6, 24.1 21.8, 24 21.9, 23.9C22, 23.8 22.1, 23.7 22.2, 23.6C22.3, 23.5 22.3, 23.4 22.3, 23.2C22.3, 23 22.2, 22.8 22.1, 22.7C22, 22.6 21.8, 22.4 21.7, 22.3C21.5, 22.2 21.3, 22.1 21, 21.9C20.7, 21.8 20.5, 21.7 20.2, 21.5C19.4, 21.2 18.9, 20.8 18.5, 20.3C18.1, 19.8 17.9, 19.3 17.9, 18.7C17.9, 18.2 18, 17.8 18.2, 17.4C18.4, 17 18.7, 16.7 19, 16.5C19.3, 16.3 19.6, 16.2 19.9, 16.1L19.9, 15L21.9, 15L21.9, 16C22.3, 16 22.7, 16 23, 16.1C23.4, 16.2 23.5, 16.2 23.9, 16.3L23.9, 18.3C23.7, 18.2 23.8, 18.2 23.6, 18.1C23.4, 18 23.2, 17.9 23, 17.9C22.8, 17.8 22.6, 17.8 22.4, 17.8C22.2, 17.8 22, 17.8 21.8, 17.8C21.6, 17.8 21.3, 17.8 21.1, 17.9C20.9, 17.9 20.7, 18 20.6, 18.1C20.5, 18.2 20.4, 18.3 20.3, 18.4C20.2, 18.5 20.2, 18.7 20.2, 18.8C20.2, 19 20.2, 19.1 20.3, 19.2C20.4, 19.3 20.5, 19.4 20.7, 19.6C20.9, 19.7 21, 19.8 21.3, 19.9C21.5, 20 21.8, 20.1 22.1, 20.2C22.5, 20.4 22.8, 20.5 23.1, 20.7C23.4, 20.9 23.7, 21.1 23.9, 21.3C24.1, 21.5 24.3, 21.8 24.4, 22.1C24.5, 22.4 24.6, 22.7 24.6, 23.1C24.6, 23.7 24.5, 24.1 24.3, 24.5z" fill="#039C23" class="Green" />
    </g>
  </g>
</svg>