<?xml version='1.0' encoding='UTF-8'?>
<svg viewBox="-6 -4 32 32" xmlns="http://www.w3.org/2000/svg" xmlns:xlink="http://www.w3.org/1999/xlink">
  <g id="Layer_1" transform="translate(-6, -4)" style="enable-background:new 0 0 32 32">
    <g id="New">
      <g>
        <path d="M19, 4L7, 4C6.4, 4 6, 4.4 6, 5L6, 27C6, 27.6 6.4, 28 7, 28L25, 28C25.6, 28 26, 27.6 26, 27L26, 11L19, 4zM24, 26L8, 26L8, 6L18, 6L18, 11C18, 11.6 18.4, 12 19, 12L24, 12L24, 26z" fill="#727272" class="Black" />
      </g>
    </g>
  </g>
  <g id="Layer_1" transform="translate(-6, -4)" style="enable-background:new 0 0 32 32">
    <g id="New">
      <g>
        <path d="M19, 4L7, 4C6.4, 4 6, 4.4 6, 5L6, 27C6, 27.6 6.4, 28 7, 28L25, 28C25.6, 28 26, 27.6 26, 27L26, 11L19, 4zM24, 26L8, 26L8, 6L18, 6L18, 11C18, 11.6 18.4, 12 19, 12L24, 12L24, 26z" fill="#727272" class="Black" />
      </g>
    </g>
  </g>
  <g id="Layer_1" transform="translate(10, 12)" style="enable-background:new 0 0 16 16">
    <g id="Rollback">
      <path d="M0, 0L2.3, 2.3C3.8, 0.9 5.8, 0 8, 0C12.4, 0 16, 3.6 16, 8C16, 12.4 12.4, 16 8, 16C3.6, 16 0, 12.4 0, 8C0, 7.3 0.1, 6.6 0.3, 6L0, 6L0, 0z" fill="#D11C1C" class="Red" />
    </g>
  </g>
  <g id="Layer_1" transform="translate(10, 12)" style="enable-background:new 0 0 16 16">
    <g id="Rollback">
      <path d="M2.3, 6L6, 6L3.8, 3.8C4.8, 2.7 6.3, 2 8, 2C11.3, 2 14, 4.7 14, 8C14, 11.3 11.3, 14 8, 14C4.7, 14 2, 11.3 2, 8L0, 8C0, 7.3 0.1, 6.6 0.3, 6L2.3, 6z" fill="#FFFFFF" class="White" />
    </g>
  </g>
</svg>