<?xml version='1.0' encoding='UTF-8'?>
<svg viewBox="-2 -6 32 32" xmlns="http://www.w3.org/2000/svg" xmlns:xlink="http://www.w3.org/1999/xlink">
  <g id="Layer_1" transform="translate(-2, -6)" style="enable-background:new 0 0 32 32">
    <g id="PersonalID">
      <rect x="18" y="16" width="8" height="2" fill="#727272" class="Black" />
    </g>
  </g>
  <g id="Layer_1" transform="translate(-2, -5.99999952316284)" style="enable-background:new 0 0 32 32">
    <g id="PersonalID">
      <rect x="18" y="12" width="8" height="2" fill="#727272" class="Black" />
    </g>
  </g>
  <g id="Layer_1" transform="translate(-2.00000047683716, -6.00000047683716)" style="enable-background:new 0 0 32 32">
    <g id="PersonalID">
      <circle cx="11" cy="13" r="3" fill="#727272" class="Black" />
    </g>
  </g>
  <g id="Layer_1" transform="translate(-2, -6)" style="enable-background:new 0 0 32 32">
    <g id="PersonalID">
      <path d="M29, 6L3, 6C2.4, 6 2, 6.5 2, 7L2, 25C2, 25.5 2.4, 26 3, 26L29, 26C29.6, 26 30, 25.5 30, 25L30, 7C30, 6.5 29.6, 6 29, 6zM28, 24L4, 24L4, 8L28, 8L28, 24z" fill="#727272" class="Black" />
    </g>
  </g>
  <g id="Layer_1" transform="translate(-2.00000047683716, -6.00000076293945)" style="enable-background:new 0 0 32 32">
    <g id="PersonalID">
      <path d="M14.2, 16.8C13.3, 17.5 12.2, 18 11, 18C9.8, 18 8.7, 17.5 7.8, 16.8C6, 18.5 6, 22 6, 22L16, 22C16, 22 16, 18.5 14.2, 16.8z" fill="#727272" class="Black" />
    </g>
  </g>
  <g id="Layer_1" transform="translate(14, 10)" style="enable-background:new 0 0 16 16">
    <g id="Edit_1_">
      <polygon points="0,16 4,16 0,12  " fill="#1177D7" class="Blue" />
    </g>
  </g>
  <g id="Layer_1" transform="translate(14.0000010238647, 9.99999897766113)" style="enable-background:new 0 0 16 16">
    <g id="Edit_1_">
      <rect x="1.9" y="6.5" width="9.5" height="5.6" fill="#1177D7" class="Blue" transform="matrix(0.7071, -0.7071, 0.7071, 0.7071, -4.6432, 7.4493)" />
    </g>
  </g>
  <g id="Layer_1" transform="translate(13.9999996185303, 9.99999961853027)" style="enable-background:new 0 0 16 16">
    <g id="Edit_1_">
      <path d="M15.6, 2.5L13.5, 0.4C13, -0.1 12.1, -0.1 11.6, 0.4L9.4, 2.7L13.4, 6.7L15.7, 4.4C16.1, 3.9 16.1, 3 15.6, 2.5z" fill="#1177D7" class="Blue" />
    </g>
  </g>
  <g id="Layer_1" transform="translate(14.0000001220703, 10.000000227356)" style="enable-background:new 0 0 16 16">
    <g id="Edit_1_">
      <rect x="1.7" y="10.5" width="1.9" height="5.6" fill="#FFFFFF" class="White" transform="matrix(0.7071, -0.7071, 0.7071, 0.7071, -8.6546, 5.7876)" />
    </g>
  </g>
  <g id="Layer_1" transform="translate(14.000000567627, 9.99999909515381)" style="enable-background:new 0 0 16 16">
    <g id="Edit_1_">
      <rect x="9.7" y="2.5" width="1.9" height="5.6" fill="#FFFFFF" class="White" transform="matrix(0.7071, -0.7071, 0.7071, 0.7071, -0.6318, 9.1109)" />
    </g>
  </g>
</svg>