<?xml version='1.0' encoding='UTF-8'?>
<svg viewBox="-2 -6 32 32" xmlns="http://www.w3.org/2000/svg" xmlns:xlink="http://www.w3.org/1999/xlink">
  <g id="Layer_1" transform="translate(-2, -6)" style="enable-background:new 0 0 32 32">
    <g id="PersonalID">
      <rect x="18" y="16" width="8" height="2" fill="#727272" class="Black" />
    </g>
  </g>
  <g id="Layer_1" transform="translate(-2, -5.99999952316284)" style="enable-background:new 0 0 32 32">
    <g id="PersonalID">
      <rect x="18" y="12" width="8" height="2" fill="#727272" class="Black" />
    </g>
  </g>
  <g id="Layer_1" transform="translate(-2.00000047683716, -6.00000047683716)" style="enable-background:new 0 0 32 32">
    <g id="PersonalID">
      <circle cx="11" cy="13" r="3" fill="#727272" class="Black" />
    </g>
  </g>
  <g id="Layer_1" transform="translate(-2, -6)" style="enable-background:new 0 0 32 32">
    <g id="PersonalID">
      <path d="M29, 6L3, 6C2.4, 6 2, 6.5 2, 7L2, 25C2, 25.5 2.4, 26 3, 26L29, 26C29.6, 26 30, 25.5 30, 25L30, 7C30, 6.5 29.6, 6 29, 6zM28, 24L4, 24L4, 8L28, 8L28, 24z" fill="#727272" class="Black" />
    </g>
  </g>
  <g id="Layer_1" transform="translate(-2.00000047683716, -6.00000076293945)" style="enable-background:new 0 0 32 32">
    <g id="PersonalID">
      <path d="M14.2, 16.8C13.3, 17.5 12.2, 18 11, 18C9.8, 18 8.7, 17.5 7.8, 16.8C6, 18.5 6, 22 6, 22L16, 22C16, 22 16, 18.5 14.2, 16.8z" fill="#727272" class="Black" />
    </g>
  </g>
  <g id="Layer_1" transform="translate(14, 10)" style="enable-background:new 0 0 16 16">
    <g id="Add_1_">
      <path d="M15, 6L10, 6L10, 1C10, 0.4 9.5, 0 9, 0L7, 0C6.5, 0 6, 0.4 6, 1L6, 6L1, 6C0.5, 6 0, 6.4 0, 7L0, 9C0, 9.6 0.5, 10 1, 10L6, 10L6, 15C6, 15.6 6.5, 16 7, 16L9, 16C9.5, 16 10, 15.6 10, 15L10, 10L15, 10C15.5, 10 16, 9.6 16, 9L16, 7C16, 6.4 15.5, 6 15, 6z" fill="#039C23" class="Green" />
    </g>
  </g>
</svg>