<?xml version='1.0' encoding='UTF-8'?>
<svg viewBox="-4 -4 32 32" xmlns="http://www.w3.org/2000/svg" xmlns:xlink="http://www.w3.org/1999/xlink">
  <g id="Layer_1" transform="translate(-4, -4)" style="enable-background:new 0 0 32 32">
    <g id="Zoom">
      <path d="M27.7, 25.3L20.5, 18C21.5, 16.6 22, 14.8 22, 13C22, 8 18, 4 13, 4C8, 4 4, 8 4, 13C4, 18 8, 22 13, 22C14.9, 22 16.6, 21.4 18, 20.5L25.3, 27.8C25.6, 28.1 26.2, 28.1 26.5, 27.8L27.7, 26.6C28.1, 26.2 28.1, 25.6 27.7, 25.3zM6, 13C6, 9.1 9.1, 6 13, 6C16.9, 6 20, 9.1 20, 13C20, 16.9 16.9, 20 13, 20C9.1, 20 6, 16.9 6, 13z" fill="#727272" class="Black" />
    </g>
  </g>
  <g id="Layer_1" transform="translate(2.38418579101563E-07, 2.38418579101563E-07)" style="enable-background:new 0 0 16 16">
    <g id="AddCircled">
      <circle cx="9" cy="9" r="7" fill="Transparent" class="Transparent" />
    </g>
  </g>
  <g id="Layer_1" transform="translate(0, 0)" style="enable-background:new 0 0 16 16">
    <g id="AddCircled">
      <polygon points="14,8 10,8 10,4 8,4 8,8 4,8 4,10 8,10 8,14 10,14 10,10 14,10  " fill="#727272" class="Black" />
    </g>
  </g>
</svg>