<svg xmlns="http://www.w3.org/2000/svg" viewBox="0 0 200 44.27"><defs><style>.cls-1{fill:red;}.cls-2{fill:#fff;}.cls-3{fill:#666;}</style></defs><title>ECG</title><g id="Layer_2" data-name="Layer 2"><g id="Layer_2-2" data-name="Layer 2"><g id="ECG"><path class="cls-1" d="M57.39,0,45.45,44.27H188.06L200,0ZM91,31.08l-2.27,8.23H50.92l2.27-8.23,1.52-5.48,1.94-7,1.51-5.49,2.28-8.23H98.2l-2.27,8.23H68.5L67,18.55H92.45L90.51,25.6H65l-1.51,5.48Zm37.77-18h-14.2A5.72,5.72,0,0,0,109,17.32l-2.46,9.28A3.57,3.57,0,0,0,110,31.09h13.29a5.73,5.73,0,0,0,5.53-4.25l.14-.54h10.58l-1.27,4.79a11.6,11.6,0,0,1-11.2,8.62H101a6.87,6.87,0,0,1-6.87-6.85,6.79,6.79,0,0,1,.24-1.77l4.78-18a11.58,11.58,0,0,1,11.2-8.62H136.4A6.86,6.86,0,0,1,143,13.07l-1.12,4.22H131.33l.17-.62A2.87,2.87,0,0,0,128.72,13.07Zm61.77,4.22H179.91l.17-.62a2.87,2.87,0,0,0-2.78-3.6H163.1a5.72,5.72,0,0,0-5.52,4.22,0,0,0,0,1,0,0l-2.38,9-.08.3a3.57,3.57,0,0,0,3.45,4.49h13.29a5.73,5.73,0,0,0,5.53-4.25l.14-.54H165.19L167,19.64h22.91L188.1,26.3l-1.27,4.79a11.6,11.6,0,0,1-11.2,8.62h-26a6.86,6.86,0,0,1-6.86-6.85,6.78,6.78,0,0,1,.23-1.77l1.27-4.79,2.39-9,1.12-4.22a11.58,11.58,0,0,1,11.2-8.62h26a6.86,6.86,0,0,1,6.63,8.62Z"/><path class="cls-2" d="M131.33,17.29h10.58L143,13.07a6.86,6.86,0,0,0-6.63-8.62H110.35a11.58,11.58,0,0,0-11.2,8.62l-4.78,18a6.79,6.79,0,0,0-.24,1.77A6.87,6.87,0,0,0,101,39.71h26.05a11.6,11.6,0,0,0,11.2-8.62l1.27-4.79H128.94l-.14.54a5.73,5.73,0,0,1-5.53,4.25H110a3.57,3.57,0,0,1-3.45-4.49L109,17.32a5.72,5.72,0,0,1,5.53-4.25h14.2a2.87,2.87,0,0,1,2.78,3.6Z"/><path class="cls-2" d="M185,4.45h-26a11.58,11.58,0,0,0-11.2,8.62l-1.12,4.22-2.39,9L143,31.09a6.78,6.78,0,0,0-.23,1.77,6.86,6.86,0,0,0,6.86,6.85h26a11.6,11.6,0,0,0,11.2-8.62l1.27-4.79,1.76-6.66H167l-1.76,6.66h12.33l-.14.54a5.73,5.73,0,0,1-5.53,4.25H158.56a3.57,3.57,0,0,1-3.45-4.49l.08-.3,2.38-9a0,0,0,0,0,0,0,5.72,5.72,0,0,1,5.52-4.22h14.2a2.87,2.87,0,0,1,2.78,3.6l-.17.62h10.58l1.12-4.22A6.86,6.86,0,0,0,185,4.45Z"/><polygon class="cls-2" points="90.51 25.6 92.45 18.55 66.99 18.55 68.5 13.06 95.92 13.06 98.2 4.83 60.44 4.83 58.16 13.06 56.65 18.55 54.7 25.6 53.19 31.08 50.92 39.31 88.68 39.31 90.95 31.08 63.53 31.08 65.04 25.6 90.51 25.6"/><path class="cls-3" d="M18.59,0a8.68,8.68,0,0,0-8.38,6.41L0,44.27H35.28a8.67,8.67,0,0,0,8.37-6.41L53.86,0ZM40.24,35.54a7.33,7.33,0,0,1-14,.57L20.84,20.89,15.5,41h-11l8-30.17a6.31,6.31,0,0,1,6.1-4.69h3.06a6.33,6.33,0,0,1,6,4.27l4.7,13.77,2.83-10.6H46.09Zm4.21-24.73H36L37.24,6A4.6,4.6,0,0,1,41.7,2.59h8.49L48.91,7.38A4.6,4.6,0,0,1,44.45,10.81Z"/><path class="cls-2" d="M32.4,24.16,27.7,10.39a6.33,6.33,0,0,0-6-4.27H18.66a6.31,6.31,0,0,0-6.1,4.69L4.53,41h11l5.34-20.09,5.42,15.22a7.33,7.33,0,0,0,14-.57l5.85-22H35.23Z"/><path class="cls-2" d="M41.7,2.59A4.6,4.6,0,0,0,37.24,6L36,10.81h8.49a4.6,4.6,0,0,0,4.46-3.43l1.28-4.79Z"/></g></g></g></svg>