<svg xmlns="http://www.w3.org/2000/svg" viewBox="0 0 1213.8 401.04"><defs><style>.cls-1{fill:#bf0811;}.cls-2{fill:#fff;}</style></defs><title>KONTECG</title><g id="Layer_2" data-name="Layer 2"><g id="Layer_1-2" data-name="Layer 1"><rect class="cls-1" y="0.01" width="1213.8" height="401.03" rx="18.3"/><path class="cls-2" d="M390.09,266a199.8,199.8,0,0,1-31.69,58.13,7.64,7.64,0,0,1-11.9.11L325,298.19l-73.54-89.05,57.89-76a2.47,2.47,0,0,0-2-4h-74l-23,30.19L183.06,195.2l-7.55,9.92a6.39,6.39,0,0,0,.16,7.94l7.39,8.94,30.48,36.91L246,298.19l54.44,65.93a7.62,7.62,0,0,1-2.12,11.5c-1.23.69-2.47,1.37-3.71,2A199.63,199.63,0,0,1,200.51,401q-8.82,0-17.45-.75a199.56,199.56,0,0,1-64.49-16.7l-2.51-1.15a200.45,200.45,0,0,1-50.21-33.35q-4.68-4.24-9.08-8.77A200.23,200.23,0,0,1,44.4,74.69q4.17-5.18,8.68-10.07a201.69,201.69,0,0,1,47.59-38c3.29-1.9,6.64-3.69,10-5.4a3.69,3.69,0,0,1,5.35,3.31V291.76a6.43,6.43,0,0,0,6.43,6.43h54.14a6.43,6.43,0,0,0,6.43-6.43V242.59l-18.77-22.73-5-6.11a6.25,6.25,0,0,1-.15-7.77l5.14-6.76,18.82-24.71V4.38a3.92,3.92,0,0,1,3.67-3.9C191.29.17,195.88,0,200.51,0a199.55,199.55,0,0,1,96.61,24.78c3.7,2,7.32,4.16,10.86,6.44a200,200,0,0,1,88.71,127.63c-2.12,0-4.35-.07-6.71-.07H352.36q-17.79,0-26.54,1.69t-14,5.63a25,25,0,0,0-8.72,12.16q-2.67,7.67-2.67,20.81v28.55q0,12,2.67,19.3a25.16,25.16,0,0,0,8.72,11.78,33.41,33.41,0,0,0,13.85,5.66q8.5,1.65,26.86,1.65Z"/><path class="cls-2" d="M401,200.53a201.64,201.64,0,0,1-3.57,37.85,69.89,69.89,0,0,1-16,1.47H361.15q-16.87,0-22.54-4.21T333,220.1V205.54q0-12,5.38-16.31T361,184.94h20.46q12.84,0,19.13,2.44Q401,193.9,401,200.53Z"/><path class="cls-1" d="M381.47,239.85a69.89,69.89,0,0,0,16-1.47A197.34,197.34,0,0,1,390.09,266H352.5q-18.36,0-26.86-1.65a33.41,33.41,0,0,1-13.85-5.66,25.16,25.16,0,0,1-8.72-11.78q-2.67-7.28-2.67-19.3V199.07q0-13.14,2.67-20.81a25,25,0,0,1,8.72-12.16q5.26-3.94,14-5.63t26.54-1.69H390c2.36,0,4.59,0,6.71.07a198.47,198.47,0,0,1,3.91,28.53q-6.3-2.43-19.13-2.44H361q-17.29,0-22.68,4.29T333,205.54V220.1q0,11.31,5.66,15.54t22.54,4.21Z"/><path class="cls-2" d="M439.23,178.19a25.33,25.33,0,0,0-8.54-12.09q-5.2-3.94-14-5.63a127.42,127.42,0,0,0-20-1.62,198.47,198.47,0,0,1,3.91,28.53,13.8,13.8,0,0,1,3.37,1.81q5.55,4.26,5.55,15.79v14.84q0,11.52-5.55,15.78a17.68,17.68,0,0,1-6.51,2.78A197.34,197.34,0,0,1,390.09,266q18.06,0,26.67-1.65t13.93-5.66a25.83,25.83,0,0,0,8.54-12.06q2.7-7.56,2.71-19.65V197.81Q441.94,185.86,439.23,178.19Z"/><path class="cls-2" d="M602.81,264.75H556L493.19,188.6v76.15H461.27V160.05h47.32L571,236.83V160.05h31.85Z"/><path class="cls-2" d="M692,264.75H660.12v-79H616.31V160.05H735.84v25.66H692Z"/><path class="cls-2" d="M864.23,185.57H781.76v15.82h77.69v22H781.76v16H865.5v25.32H749.83V160.05h114.4Z"/><path class="cls-2" d="M984,197.81v-1.06q0-6.1-4.05-9t-12.83-2.85H941.51q-16.46,0-21.13,4t-4.68,16.63V220.1q0,11.33,5.21,15.54t20.6,4.21h18.56q15.25,0,20-3t4.75-11.36v-1.12h32.41c0,.14,0,.4.07.77q.21,4.57.21,6.82,0,10.05-2.53,16.59A22.79,22.79,0,0,1,1007,259q-5.13,3.79-13.68,5.41T968.3,266H932.58q-16.4,0-24.12-1.76a33.56,33.56,0,0,1-13.22-6A29,29,0,0,1,886,246q-2.88-7.27-2.88-18.39V199.07q0-22.5,10.68-31.39t38.75-8.9H968.3q17.22,0,25.38,1.55t12.87,5.2a22.11,22.11,0,0,1,7.34,10.24q2.36,6.42,2.36,16.13c0,1.55,0,2.73,0,3.55s-.08,1.61-.17,2.36Z"/><path class="cls-2" d="M1134.16,197.81v-.28q0-7.25-4.36-9.92t-19.68-2.67h-18.64q-16.38,0-21,3.94t-4.6,16.66V220.1q0,11.33,5.2,15.54t20.53,4.21h18.5q13.77,0,19-2.49c3.47-1.66,5.2-4.54,5.2-8.61a22.35,22.35,0,0,0-.28-2.82v-.35h-37.61V204.42h70.87V238.8q0,14.76-10.93,21T1118.27,266h-35.58q-16.38,0-24.18-1.76a32.93,32.93,0,0,1-13.22-6,29,29,0,0,1-9.21-12.27q-2.89-7.27-2.89-18.39V199.07q0-22.5,10.66-31.39t38.7-8.9h35.72q17.3,0,25.53,1.55t12.93,5.2a22.29,22.29,0,0,1,7.28,10.24q2.35,6.42,2.36,16.13c0,1.55,0,2.74,0,3.59s-.06,1.61-.1,2.32Z"/></g></g></svg>